<?xml version="1.0" encoding="iso-8859-1"?>
<!-- Generator: Adobe Illustrator 19.0.0, SVG Export Plug-In . SVG Version: 6.00 Build 0)  -->
<svg xmlns="http://www.w3.org/2000/svg" xmlns:xlink="http://www.w3.org/1999/xlink" version="1.1" id="Capa_1" x="0px" y="0px" viewBox="0 0 512 512" style="enable-background:new 0 0 512 512;" xml:space="preserve" width="512" height="512">
<g>
	<path style="fill:#AB7B26;" d="M290.166,85.056V55.032c0-30.277-24.578-54.917-54.83-55.027l-20.016,85.051H290.166z"/>
	<path style="fill:#E1BB78;" d="M235.337,0.005c-0.068,0-0.134-0.005-0.202-0.005c-30.345,0-55.032,24.688-55.032,55.032v30.024   h55.234V0.005z"/>
	<path style="fill:#CDBFBA;" d="M374.37,332.539l-24.479-17.344l45.856-64.721c12.619-17.81,14.167-40.019,4.143-59.407   c-10.024-19.389-29.041-30.964-50.867-30.964h-83.865v-30h83.865c32.765,0,62.468,18.08,77.516,47.186s12.629,63.794-6.313,90.529   L374.37,332.539z"/>
	<path style="fill:#DD7D00;" d="M215.321,301.053L235.337,512h72.212l3.339-1.806c48.275-26.104,79.449-74.809,83.308-128.964   C370.066,347.034,282.866,306.279,215.321,301.053z"/>
	<path style="fill:#EEBF00;" d="M235.133,301.036c-67.614-5.159-125.019,10.631-159.068,57.4c-0.264,3.775-0.404,7.574-0.404,11.397   c0,58.654,32.08,112.438,83.721,140.361l3.339,1.806h72.616V301.053C235.269,301.048,235.201,301.041,235.133,301.036z"/>
	<path style="fill:#EFE2DD;" d="M361.925,273.098c-18.364-24.034-43.544-42.553-71.759-52.969V85.056h-74.846l20.016,284.692   c13.874-5.761,27.816-11.495,55.563-11.495c52.875,0,55.623,20.817,103.296,22.977c0.269-3.775,0.412-7.575,0.412-11.397   C394.608,334.531,383.307,301.081,361.925,273.098z"/>
	<path style="fill:#FFF5F5;" d="M180.102,85.056v135.073c-28.214,10.416-53.395,28.935-71.758,52.969   c-19.066,24.953-30.109,54.254-32.279,85.338c47.678,2.158,50.424,22.978,103.299,22.978c28.02,0,41.962-5.847,55.973-11.665   V85.056H180.102z"/>
	<polygon style="fill:#CDBFBA;" points="320.203,70.056 235.337,70.056 225.329,85.056 235.337,100.056 320.203,100.056  "/>
	<rect x="150.066" y="70.056" style="fill:#EFE2DD;" width="85.27" height="30"/>
</g>















</svg>
